<svg width="300" height="300" viewBox="0 0 300 300" fill="none" xmlns="http://www.w3.org/2000/svg">
<path d="M71.8879 72.029L120.903 42.5497C185.211 18.045 264.63 72.029 264.077 149.965C263.524 227.901 172.497 264.75 138.223 266.04C110.805 267.071 82.5753 245.588 71.8879 234.718L35.5875 178.154L42.9581 125.46L71.8879 72.029Z" fill="#F1F1F1" stroke="black"/>
<path d="M122.95 27.0504C190.855 12.1105 258.01 55.0446 272.95 122.95C287.89 190.855 244.955 258.01 177.05 272.95C109.145 287.89 41.9903 244.955 27.0504 177.05C12.1105 109.145 55.0445 41.9904 122.95 27.0504ZM128.36 51.6404C102.273 57.3797 79.5349 73.2469 65.1472 95.7513C50.7595 118.256 45.9009 145.554 51.6403 171.64C57.3797 197.727 73.2469 220.465 95.7512 234.853C118.256 249.241 145.554 254.099 171.64 248.36C197.727 242.62 220.465 226.753 234.853 204.249C249.24 181.744 254.099 154.446 248.36 128.36C242.62 102.273 226.753 79.5349 204.249 65.1472C181.744 50.7596 154.446 45.901 128.36 51.6404ZM188.938 141.433C201.381 138.696 213.693 146.557 216.433 159.012L216.885 161.065C220.472 177.369 217.435 194.43 208.443 208.495C199.451 222.561 185.239 232.478 168.935 236.065C152.631 239.652 135.57 236.615 121.505 227.623C107.439 218.631 97.5224 204.419 93.9353 188.115L93.4835 186.062C90.746 173.619 98.6071 161.307 111.062 158.567L188.938 141.433ZM192.295 166.475L118.525 182.705C120.677 192.488 126.628 201.014 135.067 206.41C143.506 211.805 153.743 213.627 163.525 211.475C173.308 209.323 181.835 203.372 187.23 194.933C192.625 186.494 194.447 176.257 192.295 166.475ZM99.5899 96.6404C102.601 95.9782 105.751 96.4443 108.442 97.9503C111.133 99.4563 113.177 101.897 114.187 104.811L114.59 106.23L120 130.82C120.686 133.955 120.149 137.233 118.499 139.985C116.849 142.737 114.211 144.755 111.123 145.627C108.035 146.499 104.731 146.159 101.885 144.676C99.0395 143.193 96.8674 140.68 95.8126 137.65L95.4101 136.23L90 111.64C89.2826 108.38 89.8899 104.967 91.6884 102.154C93.4868 99.3412 96.3291 97.3578 99.5899 96.6404ZM165.46 85.925C167.187 83.2331 169.874 81.2997 172.976 80.5174C176.077 79.7351 179.36 80.1627 182.157 81.7131C184.955 83.2636 187.057 85.8208 188.038 88.8653C189.018 91.9098 188.803 95.2133 187.436 98.1049L186.67 99.4851L183.86 103.88L188.255 106.69C190.947 108.417 192.88 111.105 193.662 114.206C194.445 117.307 194.017 120.59 192.467 123.388C190.916 126.185 188.359 128.288 185.315 129.268C182.27 130.248 178.967 130.033 176.075 128.666L174.695 127.9L159.695 118.31C157.112 116.659 155.221 114.122 154.375 111.175C153.53 108.228 153.789 105.075 155.104 102.305L155.87 100.925L165.46 85.925Z" fill="#22264A"/>
<path d="M204.633 49.5243L204.632 49.5256L202.483 54.414L202.19 55.0526C200.551 58.4481 197.932 61.2507 194.69 63.0946L190.848 65.2766L190.724 65.3472L190.604 65.4255L190.38 65.5725L190.259 65.6517L190.144 65.7384C189.26 66.4019 188.561 67.2744 188.103 68.273C187.646 69.2714 187.444 70.367 187.513 71.4607C187.583 72.5545 187.923 73.6163 188.504 74.5494C189.085 75.4811 189.891 76.2567 190.851 76.8015C190.853 76.8025 190.855 76.8035 190.856 76.8045L194.654 78.9627L195.254 79.3191C198.431 81.2792 200.95 84.1755 202.468 87.6296C202.469 87.6298 202.469 87.63 202.469 87.6301L204.632 92.5521L204.686 92.6737L204.746 92.792L204.869 93.0313L204.931 93.1526L205 93.2699C207.674 97.7944 214.496 97.5721 216.704 92.5534L216.704 92.5521L218.853 87.6637L219.146 87.0251C220.785 83.6303 223.403 80.828 226.645 78.9841C226.645 78.9839 226.646 78.9837 226.646 78.9835C226.646 78.9834 226.647 78.9832 226.647 78.983L230.488 76.801L230.613 76.7304L230.732 76.6521L230.956 76.5052L231.077 76.426L231.193 76.3392C232.076 75.6758 232.776 74.8033 233.233 73.8047C233.691 72.8063 233.893 71.7107 233.823 70.617C233.753 69.5232 233.414 68.4614 232.832 67.5282C232.35 66.7544 231.712 66.0883 230.96 65.5726C231.329 65.1712 231.63 64.7114 231.852 64.211L231.857 64.1988L231.862 64.1865C232.509 62.6998 233.609 61.473 234.988 60.6796C238.337 58.7628 238.337 53.9274 234.989 52.0104C233.61 51.2171 232.511 49.9908 231.864 48.5049L231.528 47.7331L231.212 47.4138C230.879 46.9893 230.477 46.6181 230.018 46.3176C229.207 45.7858 228.255 45.5 227.279 45.5C226.304 45.5 225.352 45.7858 224.541 46.3176C223.73 46.849 223.096 47.6015 222.707 48.4788L222.702 48.4915L222.696 48.5043C222.049 49.9928 220.948 51.2211 219.567 52.0147L219.56 52.0183C219.069 52.3013 218.634 52.6637 218.27 53.0872L216.704 49.5256L216.651 49.404L216.59 49.2857L216.468 49.0464L216.406 48.9251L216.336 48.8078C213.663 44.2833 206.84 44.5056 204.633 49.5243Z" fill="#22264A" stroke="#F1F1F1" stroke-width="9" stroke-miterlimit="16"/>
</svg>
