<svg width="100" height="100" viewBox="0 0 100 100" fill="none" xmlns="http://www.w3.org/2000/svg">
<mask id="mask0_79_78" style="mask-type:alpha" maskUnits="userSpaceOnUse" x="17" y="20" width="68" height="61">
<path d="M17 32L35 23L62.5 20L84.5 34V50L79.5 65L60.5 80.5L39 78L20.5 72.5L17 50V32Z" fill="#D9D9D9"/>
</mask>
<g mask="url(#mask0_79_78)">
<path fill-rule="evenodd" clip-rule="evenodd" d="M50 10C39.3913 10 29.2172 14.2143 21.7157 21.7157C14.2143 29.2172 10 39.3913 10 50C10 60.6087 14.2143 70.7828 21.7157 78.2843C29.2172 85.7857 39.3913 90 50 90C60.6087 90 70.7828 85.7857 78.2843 78.2843C85.7857 70.7828 90 60.6087 90 50C90 39.3913 85.7857 29.2172 78.2843 21.7157C70.7828 14.2143 60.6087 10 50 10ZM0 50C0 22.385 22.385 0 50 0C77.615 0 100 22.385 100 50C100 77.615 77.615 100 50 100C22.385 100 0 77.615 0 50ZM32.5 40C31.525 40 30.28 40.62 29.47 42.24C28.8698 43.4149 27.8295 44.305 26.5759 44.7163C25.3222 45.1275 23.9568 45.0266 22.7773 44.4355C21.5977 43.8444 20.6996 42.8111 20.2787 41.5606C19.8577 40.3102 19.9481 38.9441 20.53 37.76C22.71 33.4 27.065 30 32.5 30C37.935 30 42.285 33.4 44.47 37.76C45.0519 38.9441 45.1423 40.3102 44.7213 41.5606C44.3004 42.8111 43.4023 43.8444 42.2227 44.4355C41.0432 45.0266 39.6778 45.1275 38.4241 44.7163C37.1705 44.305 36.1302 43.4149 35.53 42.24C34.72 40.62 33.48 40 32.5 40ZM67.5 40C66.525 40 65.28 40.62 64.47 42.24C64.1789 42.8322 63.7736 43.361 63.2772 43.7957C62.7808 44.2305 62.2033 44.5628 61.5779 44.7733C60.9525 44.9838 60.2917 45.0685 59.6334 45.0224C58.9751 44.9763 58.3325 44.8004 57.7426 44.5048C57.1526 44.2091 56.6271 43.7996 56.1961 43.2999C55.7652 42.8002 55.4374 42.2201 55.2317 41.5931C55.0261 40.9661 54.9465 40.3046 54.9977 39.6468C55.0489 38.9889 55.2298 38.3476 55.53 37.76C57.715 33.4 62.065 30 67.5 30C72.935 30 77.285 33.4 79.47 37.76C80.0519 38.9441 80.1423 40.3102 79.7213 41.5606C79.3004 42.8111 78.4023 43.8444 77.2227 44.4355C76.0432 45.0266 74.6778 45.1275 73.4241 44.7163C72.1705 44.305 71.1302 43.4149 70.53 42.24C69.72 40.62 68.48 40 67.5 40ZM33.02 61.69C33.4545 61.1973 33.9819 60.7951 34.572 60.5063C35.162 60.2176 35.8032 60.0479 36.4588 60.0071C37.1145 59.9662 37.7718 60.0549 38.3931 60.2682C39.0144 60.4815 39.5877 60.8151 40.08 61.25C42.73 63.59 46.195 65 50 65C53.805 65 57.275 63.59 59.92 61.25C60.9146 60.3721 62.2171 59.9253 63.5411 60.0078C64.8651 60.0903 66.1021 60.6954 66.98 61.69C67.8579 62.6846 68.3047 63.9871 68.2222 65.3111C68.1397 66.6351 67.5346 67.8721 66.54 68.75C61.9759 72.785 56.0919 75.0084 50 75C43.9081 75.0084 38.0241 72.785 33.46 68.75C32.9673 68.3155 32.5651 67.7881 32.2763 67.198C31.9876 66.608 31.8179 65.9668 31.7771 65.3112C31.7362 64.6555 31.8249 63.9982 32.0382 63.3769C32.2515 62.7556 32.5851 62.1823 33.02 61.69Z" fill="white"/>
</g>
</svg>
