<svg width="300" height="300" viewBox="0 0 300 300" fill="none" xmlns="http://www.w3.org/2000/svg">
<path d="M71.8879 72.029L120.903 42.5497C185.211 18.045 264.63 72.029 264.077 149.965C263.524 227.901 172.497 264.75 138.223 266.04C110.805 267.071 82.5753 245.588 71.8879 234.718L35.5875 178.154L42.9581 125.46L71.8879 72.029Z" fill="#F1F1F1" stroke="black"/>
<path d="M122.95 27.0504C190.855 12.1105 258.01 55.0446 272.95 122.95C287.89 190.855 244.955 258.01 177.05 272.95C109.145 287.89 41.9903 244.955 27.0504 177.05C12.1105 109.145 55.0445 41.9904 122.95 27.0504ZM128.36 51.6404C102.273 57.3797 79.5349 73.2469 65.1472 95.7513C50.7595 118.256 45.9009 145.554 51.6403 171.64C57.3797 197.727 73.2469 220.465 95.7512 234.853C118.256 249.241 145.554 254.099 171.64 248.36C197.727 242.62 220.465 226.753 234.853 204.249C249.24 181.744 254.099 154.446 248.36 128.36C242.62 102.273 226.753 79.5349 204.249 65.1472C181.744 50.7596 154.446 45.901 128.36 51.6404ZM188.938 141.433C201.381 138.696 213.693 146.557 216.433 159.012L216.885 161.065C220.472 177.369 217.435 194.43 208.443 208.495C199.451 222.561 185.239 232.478 168.935 236.065C152.631 239.652 135.57 236.615 121.505 227.623C107.439 218.631 97.5224 204.419 93.9353 188.115L93.4835 186.062C90.746 173.619 98.6071 161.307 111.062 158.567L188.938 141.433ZM192.295 166.475L118.525 182.705C120.677 192.488 126.628 201.014 135.067 206.41C143.506 211.805 153.743 213.627 163.525 211.475C173.308 209.323 181.835 203.372 187.23 194.933C192.625 186.494 194.447 176.257 192.295 166.475ZM99.5899 96.6404C102.601 95.9782 105.751 96.4443 108.442 97.9503C111.133 99.4563 113.177 101.897 114.187 104.811L114.59 106.23L120 130.82C120.686 133.955 120.149 137.233 118.499 139.985C116.849 142.737 114.211 144.755 111.123 145.627C108.035 146.499 104.731 146.159 101.885 144.676C99.0395 143.193 96.8674 140.68 95.8126 137.65L95.4101 136.23L90 111.64C89.2826 108.38 89.8899 104.967 91.6884 102.154C93.4868 99.3412 96.3291 97.3578 99.5899 96.6404ZM165.46 85.925C167.187 83.2331 169.874 81.2997 172.976 80.5174C176.077 79.7351 179.36 80.1627 182.157 81.7131C184.955 83.2636 187.057 85.8208 188.038 88.8653C189.018 91.9098 188.803 95.2133 187.436 98.1049L186.67 99.4851L183.86 103.88L188.255 106.69C190.947 108.417 192.88 111.105 193.662 114.206C194.445 117.307 194.017 120.59 192.467 123.388C190.916 126.185 188.359 128.288 185.315 129.268C182.27 130.248 178.967 130.033 176.075 128.666L174.695 127.9L159.695 118.31C157.112 116.659 155.221 114.122 154.375 111.175C153.53 108.228 153.789 105.075 155.104 102.305L155.87 100.925L165.46 85.925Z" fill="#22264A"/>
</svg>
