<svg width="100" height="100" viewBox="0 0 100 100" fill="none" xmlns="http://www.w3.org/2000/svg">
<g clip-path="url(#clip0_79_27)">
<g clip-path="url(#clip1_79_27)">
<path fill-rule="evenodd" clip-rule="evenodd" d="M50 0C77.615 0 100 22.385 100 50C100 77.615 77.615 100 50 100C22.385 100 0 77.615 0 50C0 22.385 22.385 0 50 0ZM50 10C39.3913 10 29.2172 14.2143 21.7157 21.7157C14.2143 29.2172 10 39.3913 10 50C10 60.6087 14.2143 70.7828 21.7157 78.2843C29.2172 85.7857 39.3913 90 50 90C60.6087 90 70.7828 85.7857 78.2843 78.2843C85.7857 70.7828 90 60.6087 90 50C90 39.3913 85.7857 29.2172 78.2843 21.7157C70.7828 14.2143 60.6087 10 50 10ZM50 55C56.335 55 62.135 57.365 66.54 61.25C67.5346 62.1279 68.1397 63.3649 68.2222 64.6889C68.3047 66.0129 67.8579 67.3154 66.98 68.31C66.1021 69.3046 64.8651 69.9097 63.5411 69.9922C62.2171 70.0747 60.9146 69.6279 59.92 68.75C57.1839 66.3277 53.6542 64.9934 50 65C46.195 65 42.725 66.41 40.08 68.75C39.5875 69.1843 39.0144 69.5174 38.3932 69.7303C37.772 69.9431 37.115 70.0315 36.4596 69.9904C35.8043 69.9493 35.1634 69.7795 34.5737 69.4908C33.9839 69.202 33.4568 68.8 33.0225 68.3075C32.5882 67.815 32.2551 67.2419 32.0422 66.6207C31.8294 65.9995 31.741 65.3425 31.7821 64.6871C31.8232 64.0318 31.993 63.3909 32.2817 62.8012C32.5705 62.2114 32.9725 61.6843 33.465 61.25C38.028 57.2166 43.9099 54.9933 50 55ZM32.5 30C34.4891 30 36.3968 30.7902 37.8033 32.1967C39.2098 33.6032 40 35.5109 40 37.5C40 39.4891 39.2098 41.3968 37.8033 42.8033C36.3968 44.2098 34.4891 45 32.5 45C30.5109 45 28.6032 44.2098 27.1967 42.8033C25.7902 41.3968 25 39.4891 25 37.5C25 35.5109 25.7902 33.6032 27.1967 32.1967C28.6032 30.7902 30.5109 30 32.5 30ZM67.5 30C69.4891 30 71.3968 30.7902 72.8033 32.1967C74.2098 33.6032 75 35.5109 75 37.5C75 39.4891 74.2098 41.3968 72.8033 42.8033C71.3968 44.2098 69.4891 45 67.5 45C65.5109 45 63.6032 44.2098 62.1967 42.8033C60.7902 41.3968 60 39.4891 60 37.5C60 35.5109 60.7902 33.6032 62.1967 32.1967C63.6032 30.7902 65.5109 30 67.5 30Z" fill="white"/>
</g>
</g>
<defs>
<clipPath id="clip0_79_27">
<rect width="100" height="100" fill="white"/>
</clipPath>
<clipPath id="clip1_79_27">
<rect width="100" height="100" fill="white"/>
</clipPath>
</defs>
</svg>
