<svg width="100" height="100" viewBox="0 0 100 100" fill="none" xmlns="http://www.w3.org/2000/svg">
<mask id="mask0_79_80" style="mask-type:alpha" maskUnits="userSpaceOnUse" x="17" y="16" width="68" height="72">
<path d="M17 30.281L35.1333 19.5702L62.837 16L85 32.6612V51.7025L79.963 69.5537L60.8222 88L39.163 85.0248L23.5 76.5L17 51.7025V30.281Z" fill="#D9D9D9"/>
</mask>
<g mask="url(#mask0_79_80)">
<path d="M50 0C77.615 0 100 22.385 100 50C100 77.615 77.615 100 50 100C22.385 100 0 77.615 0 50C0 22.385 22.385 0 50 0ZM50 10C39.3913 10 29.2172 14.2143 21.7157 21.7157C14.2143 29.2172 10 39.3913 10 50C10 60.6087 14.2143 70.7828 21.7157 78.2843C29.2172 85.7857 39.3913 90 50 90C60.6087 90 70.7828 85.7857 78.2843 78.2843C85.7857 70.7828 90 60.6087 90 50C90 39.3913 85.7857 29.2172 78.2843 21.7157C70.7828 14.2143 60.6087 10 50 10ZM65.835 50C70.895 50 75 54.1 75 59.165V60C75 66.6304 72.3661 72.9893 67.6777 77.6777C62.9893 82.3661 56.6304 85 50 85C43.3696 85 37.0107 82.3661 32.3223 77.6777C27.6339 72.9893 25 66.6304 25 60V59.165C25 54.105 29.1 50 34.165 50H65.835ZM65 60H35C35 63.9782 36.5804 67.7936 39.3934 70.6066C42.2064 73.4196 46.0218 75 50 75C53.9782 75 57.7936 73.4196 60.6066 70.6066C63.4196 67.7936 65 63.9782 65 60ZM35 25C36.2247 25.0002 37.4067 25.4498 38.3219 26.2636C39.237 27.0774 39.8217 28.1987 39.965 29.415L40 30V40C39.9986 41.2744 39.5106 42.5002 38.6358 43.4268C37.7609 44.3535 36.5652 44.9112 35.293 44.9859C34.0208 45.0605 32.7681 44.6466 31.7908 43.8287C30.8136 43.0107 30.1855 41.8505 30.035 40.585L30 40V30C30 28.6739 30.5268 27.4021 31.4645 26.4645C32.4021 25.5268 33.6739 25 35 25ZM61.465 26.465C62.3648 25.5683 63.5722 25.0476 64.8419 25.0089C66.1117 24.9701 67.3486 25.4161 68.3014 26.2562C69.2542 27.0964 69.8515 28.2678 69.972 29.5324C70.0925 30.797 69.7271 32.06 68.95 33.065L68.535 33.535L67.07 35L68.535 36.465C69.4317 37.3648 69.9524 38.5722 69.9911 39.8419C70.0299 41.1117 69.5839 42.3486 68.7438 43.3014C67.9036 44.2542 66.7322 44.8515 65.4676 44.972C64.203 45.0925 62.94 44.7271 61.935 43.95L61.465 43.535L56.465 38.535C55.6041 37.674 55.087 36.5285 55.0106 35.3134C54.9342 34.0983 55.3037 32.897 56.05 31.935L56.465 31.465L61.465 26.465Z" fill="white"/>
</g>
</svg>
