<svg width="100" height="100" viewBox="0 0 100 100" fill="none" xmlns="http://www.w3.org/2000/svg">
<mask id="mask0_79_74" style="mask-type:alpha" maskUnits="userSpaceOnUse" x="17" y="14" width="68" height="73">
<path d="M17 28.281L35.1333 17.5702L62.837 14L85 30.6612V49.7025L75 81.5L64.5 87H34.5L24 80L17 49.7025V28.281Z" fill="#D9D9D9"/>
</mask>
<g mask="url(#mask0_79_74)">
<path fill-rule="evenodd" clip-rule="evenodd" d="M49.9958 9.99915C41.7092 9.99915 33.6272 12.573 26.8666 17.3649C20.1061 22.1569 15.0009 28.9303 12.2564 36.7492C9.51196 44.5682 9.26383 53.0465 11.5463 61.0125C13.8288 68.9786 18.5292 76.039 24.9979 81.2181V54.9953C24.9979 53.6694 25.5246 52.3977 26.4622 51.4601C27.3998 50.5225 28.6715 49.9958 29.9975 49.9958C31.3234 49.9958 32.5951 50.5225 33.5327 51.4601C34.4703 52.3977 34.997 53.6694 34.997 54.9953V87.0876C39.6266 88.9625 44.6962 89.9924 49.9958 89.9924C55.2953 89.9924 60.3649 88.9625 64.9945 87.0876V54.9953C64.9945 53.6694 65.5212 52.3977 66.4588 51.4601C67.3964 50.5225 68.6681 49.9958 69.9941 49.9958C71.32 49.9958 72.5917 50.5225 73.5293 51.4601C74.4669 52.3977 74.9937 53.6694 74.9937 54.9953V81.2181C81.4624 76.039 86.1628 68.9786 88.4452 61.0125C90.7277 53.0465 90.4796 44.5682 87.7351 36.7492C84.9907 28.9303 79.8854 22.1569 73.1249 17.3649C66.3644 12.573 58.2824 9.99915 49.9958 9.99915ZM74.9937 93.3021C89.9374 84.6578 99.9915 68.5042 99.9915 49.9958C99.9915 22.3831 77.6084 0 49.9958 0C22.3831 0 4.11364e-06 22.3831 4.11364e-06 49.9958C-0.00355695 58.7737 2.30498 67.3978 6.6933 75.0001C11.0816 82.6025 17.3949 88.9149 24.9979 93.3021V94.992C24.996 96.0941 25.3584 97.166 26.0286 98.0409C26.6989 98.9158 27.6395 99.5447 28.7041 99.8298C29.7687 100.115 30.8977 100.04 31.9155 99.6174C32.9333 99.1946 33.7829 98.4473 34.3321 97.4917C39.2567 99.1116 44.5262 99.9915 49.9958 99.9915C55.3168 99.9978 60.6047 99.1539 65.6594 97.4917C66.2086 98.4473 67.0582 99.1946 68.076 99.6174C69.0938 100.04 70.2228 100.115 71.2874 99.8298C72.3521 99.5447 73.2926 98.9158 73.9629 98.0409C74.6332 97.166 74.9955 96.0941 74.9937 94.992V93.3021ZM19.9983 34.997C19.9983 33.6711 20.5251 32.3994 21.4627 31.4618C22.4003 30.5242 23.6719 29.9975 24.9979 29.9975H39.9966C41.3226 29.9975 42.5943 30.5242 43.5319 31.4618C44.4695 32.3994 44.9962 33.6711 44.9962 34.997C44.9962 36.323 44.4695 37.5947 43.5319 38.5323C42.5943 39.4699 41.3226 39.9966 39.9966 39.9966H24.9979C23.6719 39.9966 22.4003 39.4699 21.4627 38.5323C20.5251 37.5947 19.9983 36.323 19.9983 34.997ZM54.9953 34.997C54.9953 33.6711 55.5221 32.3994 56.4597 31.4618C57.3973 30.5242 58.669 29.9975 59.9949 29.9975H74.9937C76.3196 29.9975 77.5913 30.5242 78.5289 31.4618C79.4665 32.3994 79.9932 33.6711 79.9932 34.997C79.9932 36.323 79.4665 37.5947 78.5289 38.5323C77.5913 39.4699 76.3196 39.9966 74.9937 39.9966H59.9949C58.669 39.9966 57.3973 39.4699 56.4597 38.5323C55.5221 37.5947 54.9953 36.323 54.9953 34.997Z" fill="white"/>
</g>
</svg>
