<svg width="100" height="100" viewBox="0 0 100 100" fill="none" xmlns="http://www.w3.org/2000/svg">
<g clip-path="url(#clip0_79_35)">
<path fill-rule="evenodd" clip-rule="evenodd" d="M50 0C77.615 0 100 22.385 100 50C100 77.615 77.615 100 50 100C22.385 100 0 77.615 0 50C0 22.385 22.385 0 50 0ZM50 10C39.3913 10 29.2172 14.2143 21.7157 21.7157C14.2143 29.2172 10 39.3913 10 50C10 60.6087 14.2143 70.7828 21.7157 78.2843C29.2172 85.7857 39.3913 90 50 90C60.6087 90 70.7828 85.7857 78.2843 78.2843C85.7857 70.7828 90 60.6087 90 50C90 39.3913 85.7857 29.2172 78.2843 21.7157C70.7828 14.2143 60.6087 10 50 10ZM50.05 62.77C51.8438 60.9213 54.2782 59.8307 56.8519 59.7228C59.4256 59.6149 61.9427 60.4979 63.885 62.19L64.5 62.77C64.605 62.88 64.75 63.03 64.9 62.89L66.62 61.315C67.5973 60.4186 68.8907 59.9471 70.2157 60.0043C71.5406 60.0615 72.7886 60.6427 73.685 61.62C74.5814 62.5973 75.0529 63.8907 74.9957 65.2157C74.9385 66.5406 74.3573 67.7886 73.38 68.685L71.66 70.26C69.8097 71.9552 67.4001 72.91 64.8909 72.9423C62.3816 72.9746 59.9483 72.082 58.055 70.435L57.425 69.84C57.375 69.785 57.275 69.675 57.225 69.73C53.275 73.81 46.725 73.81 42.775 69.73C42.7 69.655 42.62 69.795 42.575 69.84C40.7238 71.7492 38.2009 72.8612 35.5428 72.9396C32.8846 73.018 30.3006 72.0567 28.34 70.26L26.62 68.685C25.6427 67.7886 25.0615 66.5406 25.0043 65.2157C24.9471 63.8907 25.4186 62.5973 26.315 61.62C27.2114 60.6427 28.4594 60.0615 29.7843 60.0043C31.1093 59.9471 32.4027 60.4186 33.38 61.315L35.095 62.89C35.21 62.995 35.32 62.94 35.415 62.855L35.5 62.77C39.455 58.69 46 58.69 49.95 62.77C49.9561 62.7773 49.9637 62.7833 49.9724 62.7873C49.981 62.7914 49.9905 62.7935 50 62.7935C50.0095 62.7935 50.019 62.7914 50.0276 62.7873C50.0363 62.7833 50.0439 62.7773 50.05 62.77ZM32.5 30C34.4891 30 36.3968 30.7902 37.8033 32.1967C39.2098 33.6032 40 35.5109 40 37.5C40 39.4891 39.2098 41.3968 37.8033 42.8033C36.3968 44.2098 34.4891 45 32.5 45C30.5109 45 28.6032 44.2098 27.1967 42.8033C25.7902 41.3968 25 39.4891 25 37.5C25 35.5109 25.7902 33.6032 27.1967 32.1967C28.6032 30.7902 30.5109 30 32.5 30ZM67.5 30C69.4891 30 71.3968 30.7902 72.8033 32.1967C74.2098 33.6032 75 35.5109 75 37.5C75 39.4891 74.2098 41.3968 72.8033 42.8033C71.3968 44.2098 69.4891 45 67.5 45C65.5109 45 63.6032 44.2098 62.1967 42.8033C60.7902 41.3968 60 39.4891 60 37.5C60 35.5109 60.7902 33.6032 62.1967 32.1967C63.6032 30.7902 65.5109 30 67.5 30Z" fill="white"/>
</g>
<defs>
<clipPath id="clip0_79_35">
<rect width="100" height="100" fill="white"/>
</clipPath>
</defs>
</svg>
